<?xml version="1.0" encoding="UTF-8"?>
<svg width="206px" height="37px" viewBox="0 0 206 37" version="1.1" xmlns="http://www.w3.org/2000/svg" xmlns:xlink="http://www.w3.org/1999/xlink">
    <!-- Generator: Sketch 55.1 (78136) - https://sketchapp.com -->
    <title>vivid-logo</title>
    <desc>Created with Sketch.</desc>
    <defs>
        <polygon id="path-1" points="0.638139665 0.554717647 1.78897765 0.554717647 1.78897765 1.14705882 0.638139665 1.14705882"></polygon>
        <polygon id="path-3" points="0.249156425 0.0894705882 1.39999441 0.0894705882 1.39999441 1.14705882 0.249156425 1.14705882"></polygon>
        <polygon id="path-5" points="0.918023464 0.572382353 2.06886145 0.572382353 2.06886145 1.14705882 0.918023464 1.14705882"></polygon>
        <polygon id="path-7" points="0.741024581 0.321291176 1.89186257 0.321291176 1.89186257 1.14705882 0.741024581 1.14705882"></polygon>
        <polygon id="path-9" points="0.080673743 0.471441176 1.23151173 0.471441176 1.23151173 1.14705882 0.080673743 1.14705882"></polygon>
        <polygon id="path-11" points="0.323730726 0.521338235 1.47456872 0.521338235 1.47456872 1.14705882 0.323730726 1.14705882"></polygon>
        <polygon id="path-13" points="0.810880447 0.408467647 1.96171844 0.408467647 1.96171844 1.14705882 0.810880447 1.14705882"></polygon>
        <polygon id="path-15" points="0.135798883 0.228264706 1.28663687 0.228264706 1.28663687 1.14705882 0.135798883 1.14705882"></polygon>
        <polygon id="path-17" points="0.510051397 0.228264706 1.66088939 0.228264706 1.66088939 1.14705882 0.510051397 1.14705882"></polygon>
        <polygon id="path-19" points="0.566212291 0.4719 1.71705028 0.4719 1.71705028 1.14705882 0.566212291 1.14705882"></polygon>
        <polygon id="path-21" points="1.05681453 0.32175 2.20765251 0.32175 2.20765251 1.14705882 1.05681453 1.14705882"></polygon>
        <polygon id="path-23" points="0.39807486 0.0892411765 1.54891285 0.0892411765 1.54891285 1.14705882 0.39807486 1.14705882"></polygon>
        <polygon id="path-25" points="0.323155307 0.521682353 1.4739933 0.521682353 1.4739933 1.14705882 0.323155307 1.14705882"></polygon>
        <polygon id="path-27" points="0.985577654 0.408811765 2.13641564 0.408811765 2.13641564 1.14705882 0.985577654 1.14705882"></polygon>
        <polygon id="path-29" points="0.00932178771 0.554373529 1.16015978 0.554373529 1.16015978 1.14705882 0.00932178771 1.14705882"></polygon>
        <polygon id="path-31" points="0.879585475 0.572382353 2.03042346 0.572382353 2.03042346 1.14705882 0.879585475 1.14705882"></polygon>
        <linearGradient x1="0.25781251%" y1="49.7500002%" x2="101.257813%" y2="49.7500002%" id="linearGradient-33">
            <stop stop-color="#3023AE" offset="0%"></stop>
            <stop stop-color="#53A0FD" offset="47.5247532%"></stop>
            <stop stop-color="#B4EC51" offset="100%"></stop>
        </linearGradient>
        <path d="M35.3318771,2.58088235 L21.0499777,24.0503824 L6.77037989,2.58088235 C5.63910615,0.880941176 3.35008939,0.422117647 1.65605587,1.55541176 L1.65605587,1.55541176 C-0.0402793296,2.68755882 -0.497162011,4.98282353 0.631810056,6.68047059 L0.631810056,6.68047059 L17.9680335,32.7439412 L17.9749385,32.7554118 L17.9806927,32.7645882 C18.1003799,32.9435294 18.2373296,33.1041176 18.3800335,33.2555294 L18.3800335,33.2555294 C18.4134078,33.2910882 18.4467821,33.3232059 18.4813073,33.3576176 L18.4813073,33.3576176 C18.6378212,33.5101765 18.8046927,33.6547059 18.9934302,33.7808824 L18.9934302,33.7808824 C18.9980335,33.7831765 18.9991844,33.7877647 19.0037877,33.7889118 L19.0037877,33.7889118 C19.023352,33.8026765 19.0452179,33.8107059 19.065933,33.8244706 L19.065933,33.8244706 C19.1856201,33.9013235 19.3076089,33.9701471 19.4318994,34.0309412 L19.4318994,34.0309412 C19.4836872,34.0573235 19.5366257,34.0791176 19.5895642,34.1009118 L19.5895642,34.1009118 C19.6896872,34.1467941 19.7898101,34.1835 19.8910838,34.2167647 L19.8910838,34.2167647 C19.9543799,34.2385588 20.017676,34.2603529 20.0809721,34.2764118 L20.0809721,34.2764118 C20.181095,34.3039412 20.2823687,34.3234412 20.3824916,34.3429412 L20.3824916,34.3429412 C20.443486,34.3544118 20.5033296,34.3681765 20.5654749,34.3762059 L20.5654749,34.3762059 C20.7150838,34.3957059 20.8635419,34.4083235 21.012,34.4094706 L21.012,34.4094706 C21.0223575,34.4094706 21.0350168,34.4117647 21.047676,34.4117647 L21.047676,34.4117647 C21.0488268,34.4117647 21.0488268,34.4106176 21.0499777,34.4106176 L21.0499777,34.4106176 L21.0522793,34.4117647 C21.0637877,34.4117647 21.0764469,34.4094706 21.0879553,34.4094706 L21.0879553,34.4094706 C21.2364134,34.4083235 21.3860223,34.3957059 21.5344804,34.3762059 L21.5344804,34.3762059 C21.5954749,34.3681765 21.6564693,34.3544118 21.7163128,34.3429412 L21.7163128,34.3429412 C21.8175866,34.3234412 21.9188603,34.3039412 22.0178324,34.2764118 L22.0178324,34.2764118 C22.0822793,34.2603529 22.1455754,34.2385588 22.2088715,34.2167647 L22.2088715,34.2167647 C22.3101453,34.1835 22.4102682,34.1467941 22.5103911,34.1020588 L22.5103911,34.1020588 C22.5621788,34.0791176 22.6162682,34.0573235 22.6692067,34.0297941 L22.6692067,34.0297941 C22.7923464,33.9701471 22.9143352,33.9013235 23.0317207,33.8244706 L23.0317207,33.8244706 C23.0535866,33.8118529 23.0754525,33.8038235 23.0961676,33.7889118 L23.0961676,33.7889118 C23.0996201,33.7877647 23.1030726,33.7831765 23.107676,33.7797353 L23.107676,33.7797353 C23.2941117,33.6547059 23.4621341,33.5101765 23.618648,33.3576176 L23.618648,33.3576176 C23.6531732,33.3232059 23.6865475,33.2899412 23.7210726,33.2543824 L23.7210726,33.2543824 C23.8626257,33.1029706 23.9995754,32.9435294 24.1181117,32.7645882 L24.1181117,32.7645882 L24.1227151,32.7588529 C24.1284693,32.7531176 24.1296201,32.7462353 24.1342235,32.7405 L24.1342235,32.7405 L41.4681453,6.68047059 C42.5971173,4.98282353 42.1413855,2.68755882 40.4450503,1.55541176 L40.4450503,1.55541176 C39.8166927,1.13329412 39.1054749,0.933553625 38.4023128,0.933553625 L38.4023128,0.933553625 C37.2111955,0.933553625 36.0419441,1.51182353 35.3318771,2.58088235 L35.3318771,2.58088235 Z" id="path-34"></path>
        <polygon id="path-36" points="0.162728492 0.933705882 37.4966034 0.933705882 37.4966034 34.4106176 0.162728492 34.4106176"></polygon>
        <polygon id="path-38" points="0.260372582 0.635470588 11.917795 0.635470588 11.917795 16.9822059 0.260372582 16.9822059"></polygon>
        <linearGradient x1="0.25781251%" y1="49.7500002%" x2="101.257813%" y2="49.7500002%" id="linearGradient-40">
            <stop stop-color="#3023AE" offset="0%"></stop>
            <stop stop-color="#53A0FD" offset="47.5247532%"></stop>
            <stop stop-color="#B4EC51" offset="100%"></stop>
        </linearGradient>
        <path d="M6.0890838,0.635470588 C1.44084916,0.635470588 -1.33036872,5.82705882 1.24750838,9.70297059 L1.24750838,9.70297059 L6.0890838,16.9822059 L10.9306592,9.70297059 C13.5085363,5.82705882 10.7373184,0.635470588 6.0890838,0.635470588 Z" id="path-41"></path>
    </defs>
    <g id="Page-1" stroke="none" stroke-width="1" fill="none" fill-rule="evenodd">
        <g id="home-desktop-colour-option-1" transform="translate(-238.000000, -80.000000)">
            <g id="vivid-logo" transform="translate(238.000000, 79.000000)">
                <g id="Group-71" transform="translate(17.262570, 2.805821)">
                    <g id="Group-3" transform="translate(2.301676, 33.264706)">
                        <mask id="mask-2" fill="white">
                            <use xlink:href="#path-1"></use>
                        </mask>
                        <g id="Clip-2"></g>
                        <path d="M1.43624581,1.14430588 C1.28663687,1.14201176 1.13817877,1.13168824 0.990871508,1.11218824 C1.13817877,1.13168824 1.28663687,1.14201176 1.43624581,1.14430588" id="Fill-1" fill="#352D6E" mask="url(#mask-2)"></path>
                    </g>
                    <g id="Group-6" transform="translate(1.150838, 33.264706)">
                        <mask id="mask-4" fill="white">
                            <use xlink:href="#path-3"></use>
                        </mask>
                        <g id="Clip-5"></g>
                        <path d="M1.00698324,0.765661765 C0.881541899,0.706014706 0.760703911,0.637191176 0.642167598,0.560338235 C0.759553073,0.636044118 0.880391061,0.706014706 1.00698324,0.765661765" id="Fill-4" fill="#352D6E" mask="url(#mask-4)"></path>
                    </g>
                    <g id="Group-9" transform="translate(2.301676, 33.264706)">
                        <mask id="mask-6" fill="white">
                            <use xlink:href="#path-5"></use>
                        </mask>
                        <g id="Clip-8"></g>
                        <path d="M1.47733073,1.14705882 C1.48883911,1.14705882 1.50034749,1.14476471 1.5130067,1.14476471 C1.50034749,1.14476471 1.48653743,1.14591176 1.47387821,1.14591176 C1.47617989,1.14591176 1.47617989,1.14705882 1.47733073,1.14705882" id="Fill-7" fill="#352D6E" mask="url(#mask-6)"></path>
                    </g>
                    <g id="Group-12" transform="translate(1.150838, 33.264706)">
                        <mask id="mask-8" fill="white">
                            <use xlink:href="#path-7"></use>
                        </mask>
                        <g id="Clip-11"></g>
                        <path d="M1.46662793,0.952173529 C1.36420335,0.920055882 1.26523128,0.882202941 1.16625922,0.837467647 C1.26523128,0.879908824 1.36420335,0.920055882 1.46662793,0.952173529" id="Fill-10" fill="#352D6E" mask="url(#mask-8)"></path>
                    </g>
                    <g id="Group-15" transform="translate(2.301676, 33.264706)">
                        <mask id="mask-10" fill="white">
                            <use xlink:href="#path-9"></use>
                        </mask>
                        <g id="Clip-14"></g>
                        <path d="M0.807427933,1.07823529 C0.70615419,1.05873529 0.604880447,1.03923529 0.504757542,1.01170588 C0.604880447,1.03923529 0.705003352,1.05873529 0.807427933,1.07823529" id="Fill-13" fill="#352D6E" mask="url(#mask-10)"></path>
                    </g>
                    <g id="Group-18" transform="translate(3.452514, 33.264706)">
                        <mask id="mask-12" fill="white">
                            <use xlink:href="#path-11"></use>
                        </mask>
                        <g id="Clip-17"></g>
                        <path d="M0.990641341,1.07823529 C0.928496089,1.08970588 0.868652514,1.10347059 0.807658101,1.1115 C0.868652514,1.10347059 0.928496089,1.08970588 0.990641341,1.07823529" id="Fill-16" fill="#352D6E" mask="url(#mask-12)"></path>
                    </g>
                    <path d="M5.82162905,33.7896 C5.8262324,33.7873059 5.82853408,33.7838647 5.83313743,33.7804235 C5.80896983,33.7964824 5.78250056,33.8091 5.7594838,33.8251588 C5.77904804,33.8113941 5.80091397,33.8033647 5.82162905,33.7896" id="Fill-19" fill="#352D6E"></path>
                    <path d="M6.44641899,33.2546118 C6.41304469,33.2901706 6.37851955,33.3245824 6.34399441,33.3589941 C6.37851955,33.3245824 6.41304469,33.2901706 6.44641899,33.2546118" id="Fill-21" fill="#352D6E"></path>
                    <g id="Group-25" transform="translate(3.452514, 33.264706)">
                        <mask id="mask-14" fill="white">
                            <use xlink:href="#path-13"></use>
                        </mask>
                        <g id="Clip-24"></g>
                        <path d="M1.48124358,0.952173529 C1.41909832,0.973967647 1.35580223,0.994614706 1.29135531,1.01182059 C1.35580223,0.994614706 1.41909832,0.973967647 1.48124358,0.952173529" id="Fill-23" fill="#352D6E" mask="url(#mask-14)"></path>
                    </g>
                    <g id="Group-28" transform="translate(4.603352, 33.264706)">
                        <mask id="mask-16" fill="white">
                            <use xlink:href="#path-15"></use>
                        </mask>
                        <g id="Clip-27"></g>
                        <path d="M0.791201117,0.765661765 C0.73826257,0.792044118 0.685324022,0.814985294 0.631234637,0.837926471 C0.685324022,0.814985294 0.73826257,0.792044118 0.791201117,0.765661765" id="Fill-26" fill="#352D6E" mask="url(#mask-16)"></path>
                    </g>
                    <path d="M1.7183162,33.7795059 C1.53188045,33.6544765 1.3638581,33.5110941 1.20849497,33.3596824 C1.36731061,33.5145353 1.53763464,33.6579176 1.7183162,33.7795059" id="Fill-29" fill="#352D6E"></path>
                    <path d="M6.84875196,32.7583941 C6.85220447,32.7526588 6.85680782,32.7469235 6.86026034,32.7411882 L6.84875196,32.7583941 Z" id="Fill-31" fill="#352D6E"></path>
                    <path d="M0.707420112,32.7645882 C0.825956425,32.9446765 0.961755307,33.1029706 1.10561006,33.2543824 C0.957151955,33.0983824 0.820202235,32.9343529 0.70281676,32.7588529 L0.707420112,32.7645882 Z" id="Fill-33" fill="#352D6E"></path>
                    <g id="Group-37" transform="translate(1.150838, 33.264706)">
                        <mask id="mask-18" fill="white">
                            <use xlink:href="#path-17"></use>
                        </mask>
                        <g id="Clip-36"></g>
                        <path d="M1.16545363,0.837926471 C1.11136425,0.816132353 1.0584257,0.792044118 1.00548715,0.765661765 C1.05957654,0.792044118 1.11136425,0.814985294 1.16545363,0.837926471" id="Fill-35" fill="#352D6E" mask="url(#mask-18)"></path>
                    </g>
                    <g id="Group-40" transform="translate(3.452514, 33.264706)">
                        <mask id="mask-20" fill="white">
                            <use xlink:href="#path-19"></use>
                        </mask>
                        <g id="Clip-39"></g>
                        <path d="M1.29181564,1.01216471 C1.19169274,1.03969412 1.09156983,1.05919412 0.991446927,1.07869412 C1.09156983,1.05919412 1.19284358,1.03854706 1.29181564,1.01216471" id="Fill-38" fill="#352D6E" mask="url(#mask-20)"></path>
                    </g>
                    <path d="M6.84426369,32.7645882 L6.84886704,32.7588529 C6.73148156,32.9343529 6.59453184,33.0983824 6.44607374,33.2543824 C6.58877765,33.1029706 6.72457654,32.9446765 6.84426369,32.7645882" id="Fill-41" fill="#352D6E"></path>
                    <g id="Group-45" transform="translate(3.452514, 33.264706)">
                        <mask id="mask-22" fill="white">
                            <use xlink:href="#path-21"></use>
                        </mask>
                        <g id="Clip-44"></g>
                        <path d="M1.7829933,0.837926471 C1.68402123,0.881514706 1.58274749,0.919367647 1.48147374,0.952632353 C1.58274749,0.919367647 1.68402123,0.881514706 1.7829933,0.837926471" id="Fill-43" fill="#352D6E" mask="url(#mask-22)"></path>
                    </g>
                    <g id="Group-48" transform="translate(4.603352, 33.264706)">
                        <mask id="mask-24" fill="white">
                            <use xlink:href="#path-23"></use>
                        </mask>
                        <g id="Clip-47"></g>
                        <path d="M1.15590168,0.560108824 C1.03736536,0.636961765 0.915376536,0.705785294 0.791086034,0.765432353 C0.915376536,0.705785294 1.03736536,0.635814706 1.15590168,0.560108824" id="Fill-46" fill="#352D6E" mask="url(#mask-24)"></path>
                    </g>
                    <path d="M6.34364916,33.3594529 C6.1871352,33.5108647 6.01911285,33.6542471 5.83267709,33.7804235 C6.0145095,33.6576882 6.18368268,33.5154529 6.34364916,33.3594529" id="Fill-49" fill="#352D6E"></path>
                    <g id="Group-53" transform="translate(2.301676, 33.264706)">
                        <mask id="mask-26" fill="white">
                            <use xlink:href="#path-25"></use>
                        </mask>
                        <g id="Clip-52"></g>
                        <path d="M0.990065922,1.11184412 C0.92792067,1.10381471 0.866926257,1.09005 0.807082682,1.07857941 C0.866926257,1.09005 0.92792067,1.10381471 0.990065922,1.11184412" id="Fill-51" fill="#352D6E" mask="url(#mask-26)"></path>
                    </g>
                    <g id="Group-56" transform="translate(1.150838, 33.264706)">
                        <mask id="mask-28" fill="white">
                            <use xlink:href="#path-27"></use>
                        </mask>
                        <g id="Clip-55"></g>
                        <path d="M1.65594078,1.01216471 C1.59379553,0.994958824 1.53049944,0.973164706 1.46605251,0.952517647 C1.53049944,0.973164706 1.59379553,0.994958824 1.65594078,1.01216471" id="Fill-54" fill="#352D6E" mask="url(#mask-28)"></path>
                    </g>
                    <g id="Group-59" transform="translate(3.452514, 33.264706)">
                        <mask id="mask-30" fill="white">
                            <use xlink:href="#path-29"></use>
                        </mask>
                        <g id="Clip-58"></g>
                        <path d="M0.807427933,1.11184412 C0.658969832,1.13134412 0.510511732,1.14281471 0.362053631,1.14396176 C0.510511732,1.14281471 0.66012067,1.13134412 0.807427933,1.11184412" id="Fill-57" fill="#352D6E" mask="url(#mask-30)"></path>
                    </g>
                    <path d="M1.73016983,33.7896 C1.74973408,33.8033647 1.7716,33.8113941 1.79346592,33.8251588 C1.76814749,33.8091 1.74167821,33.7964824 1.71866145,33.7804235 C1.7232648,33.7838647 1.72556648,33.7873059 1.73016983,33.7896" id="Fill-60" fill="#352D6E"></path>
                    <path d="M1.20699888,33.3594529 C1.17362458,33.3250412 1.1379486,33.2894824 1.1045743,33.2550706 C1.1379486,33.2894824 1.17132291,33.3250412 1.20699888,33.3594529" id="Fill-62" fill="#352D6E"></path>
                    <g id="Group-66" transform="translate(2.301676, 33.264706)">
                        <mask id="mask-32" fill="white">
                            <use xlink:href="#path-31"></use>
                        </mask>
                        <g id="Clip-65"></g>
                        <path d="M1.4711162,1.14705882 C1.47226704,1.14705882 1.47341788,1.14591176 1.47341788,1.14591176 C1.46075866,1.14591176 1.44925028,1.14476471 1.43659106,1.14476471 C1.4469486,1.14476471 1.45960782,1.14705882 1.4711162,1.14705882" id="Fill-64" fill="#352D6E" mask="url(#mask-32)"></path>
                    </g>
                    <path d="M0.702931844,32.7583941 L0.691423464,32.7411882 C0.694875978,32.7469235 0.698328492,32.7526588 0.702931844,32.7583941" id="Fill-67" fill="#352D6E"></path>
                    <path d="M99.7789196,2.58088235 L85.4970201,24.0503824 L71.2162715,2.58088235 C70.0861486,0.880941176 67.7971318,0.423264706 66.1030983,1.55541176 C64.4067631,2.68755882 63.9498804,4.98282353 65.0788525,6.68047059 L82.415076,32.7439412 L82.421981,32.7565588 L82.4277352,32.7645882 C82.5474223,32.9435294 82.6843721,33.1041176 82.827076,33.2555294 C82.8604503,33.2910882 82.8938246,33.3243529 82.9283497,33.3576176 C83.0837128,33.5101765 83.2517352,33.6547059 83.4404726,33.7808824 C83.445076,33.7831765 83.4462268,33.7877647 83.4508302,33.7889118 C83.4703944,33.8026765 83.4922603,33.8107059 83.5129754,33.8244706 C83.6326626,33.9013235 83.7546514,33.9701471 83.8789419,34.0309412 C83.9307296,34.0573235 83.9836682,34.0791176 84.0366067,34.1009118 C84.1367296,34.1467941 84.2368525,34.1835 84.3381263,34.2167647 C84.4002715,34.2385588 84.4647184,34.2603529 84.5280145,34.2764118 C84.6281374,34.3050882 84.7294112,34.3245882 84.8295341,34.3429412 C84.8905285,34.3544118 84.9503721,34.3681765 85.0125173,34.3773529 C85.1621263,34.3957059 85.3105844,34.4083235 85.4590425,34.4094706 C85.4694,34.4094706 85.4820592,34.4117647 85.4947184,34.4117647 C85.4958693,34.4117647 85.4958693,34.4106176 85.4970201,34.4106176 L85.4993218,34.4117647 C85.5108302,34.4117647 85.5234894,34.4094706 85.5349978,34.4094706 C85.6834559,34.4083235 85.8330648,34.3957059 85.9815229,34.3773529 C86.0425173,34.3681765 86.1035117,34.3544118 86.1633553,34.3429412 C86.2646291,34.3245882 86.3659028,34.3050882 86.4648749,34.2764118 C86.5293218,34.2603529 86.5926179,34.2385588 86.655914,34.2167647 C86.7571877,34.1835 86.8573106,34.1467941 86.9574335,34.1020588 C87.0092212,34.0791176 87.0633106,34.0573235 87.1150983,34.0297941 C87.2393888,33.9701471 87.3613777,33.9013235 87.4787631,33.8244706 C87.5006291,33.8118529 87.522495,33.8038235 87.5432101,33.7889118 C87.5466626,33.7877647 87.5489642,33.7831765 87.5547184,33.7797353 C87.7411542,33.6547059 87.9091765,33.5101765 88.0656905,33.3576176 C88.0990648,33.3243529 88.1335899,33.2899412 88.1681151,33.2543824 C88.3096682,33.1029706 88.4466179,32.9435294 88.5651542,32.7645882 L88.5697575,32.7588529 C88.5743609,32.7531176 88.5766626,32.7462353 88.5812659,32.7405 L105.914037,6.68047059 C107.04416,4.98282353 106.587277,2.68755882 104.892093,1.55541176 C104.263735,1.13444118 103.552517,0.933705882 102.849355,0.933705882 C101.658238,0.933705882 100.488987,1.51182353 99.7789196,2.58088235" id="Fill-69" fill="#352D6E"></path>
                </g>
                <g id="Group-74" transform="translate(81.709497, 2.805821)">
                    <mask id="mask-35" fill="white">
                        <use xlink:href="#path-34"></use>
                    </mask>
                    <use id="Clip-73" fill="url(#linearGradient-33)" xlink:href="#path-34"></use>
                    <polygon id="Fill-72" fill="#352D6E" mask="url(#mask-35)" points="-0.497162011 34.4117647 42.5971173 34.4117647 42.5971173 0.423264706 -0.497162011 0.423264706"></polygon>
                </g>
                <g id="Group-85" transform="translate(57.541899, 0.511703)">
                    <path d="M4.35718771,3.22782353 C2.32020447,3.22782353 0.668751955,4.88302941 0.668751955,6.92364706 L0.668751955,33.0089118 C0.668751955,35.0495294 2.32020447,36.7047353 4.35718771,36.7047353 C6.39302011,36.7047353 8.04447263,35.0495294 8.04447263,33.0089118 L8.04447263,6.92364706 C8.04447263,4.88302941 6.39302011,3.22782353 4.35718771,3.22782353" id="Fill-75" fill="#352D6E"></path>
                    <path d="M86.0785385,3.22782353 C84.0415553,3.22782353 82.3912536,4.88302941 82.3912536,6.92364706 L82.3912536,33.0089118 C82.3912536,35.0495294 84.0415553,36.7047353 86.0785385,36.7047353 C88.1155218,36.7047353 89.7669743,35.0495294 89.7669743,33.0089118 L89.7669743,6.92364706 C89.7669743,4.88302941 88.1155218,3.22782353 86.0785385,3.22782353" id="Fill-77" fill="#352D6E"></path>
                    <g id="Group-81" transform="translate(110.480447, 2.294118)">
                        <mask id="mask-37" fill="white">
                            <use xlink:href="#path-36"></use>
                        </mask>
                        <g id="Clip-80"></g>
                        <path d="M21.1988961,0.933705882 L3.85001341,0.933705882 C1.81303017,0.933705882 0.162728492,2.58891176 0.162728492,4.62952941 L0.162728492,30.7147941 C0.162728492,32.7554118 1.81303017,34.4106176 3.85001341,34.4106176 L21.1988961,34.4106176 C30.1857899,34.4106176 37.4970637,26.9019706 37.4970637,17.6727353 C37.4970637,8.4435 30.1857899,0.933705882 21.1988961,0.933705882 M21.1988961,27.0178235 L7.53844916,27.0178235 L7.53844916,8.32764706 L21.1988961,8.32764706 C26.1187285,8.32764706 30.121343,12.519 30.121343,17.6727353 C30.121343,22.8253235 26.1187285,27.0178235 21.1988961,27.0178235" id="Fill-79" fill="#352D6E" mask="url(#mask-37)"></path>
                    </g>
                    <g id="Group-84" transform="translate(39.128492, 0.000000)">
                        <mask id="mask-39" fill="white">
                            <use xlink:href="#path-38"></use>
                        </mask>
                        <g id="Clip-83"></g>
                        <path d="M1.24750838,9.70297059 L6.0890838,16.9822059 L10.9306592,9.70297059 C13.5085363,5.82705882 10.7373184,0.635470588 6.0890838,0.635470588 C1.44084916,0.635470588 -1.33036872,5.82705882 1.24750838,9.70297059" id="Fill-82" fill="#352D6E" mask="url(#mask-39)"></path>
                    </g>
                </g>
                <g id="Group-88" transform="translate(96.670391, 0.511703)">
                    <mask id="mask-42" fill="white">
                        <use xlink:href="#path-41"></use>
                    </mask>
                    <use id="Clip-87" fill="url(#linearGradient-40)" xlink:href="#path-41"></use>
                    <polygon id="Fill-86" fill="#352D6E" mask="url(#mask-42)" points="-1.33036872 16.9822059 13.5085363 16.9822059 13.5085363 0.635470588 -1.33036872 0.635470588"></polygon>
                </g>
                <path d="M40.4337721,4.36123235 C38.7385877,3.22793824 36.4484201,3.68790882 35.3182972,5.38670294 L21.0375486,26.8562029 L6.7568,5.38670294 C5.62782793,3.68676176 3.33766034,3.22908529 1.64247598,4.36123235 C-0.0515575419,5.49337941 -0.510741899,7.78864412 0.620531844,9.48743824 L17.9556045,35.5497618 L17.9625095,35.5623794 L17.9694145,35.5704088 C18.0879508,35.7516441 18.2249006,35.9110853 18.3687553,36.0624971 C18.4009788,36.0969088 18.4343531,36.1313206 18.4688782,36.1645853 C18.6253922,36.3159971 18.7934145,36.4605265 18.9810011,36.5867029 C18.9844536,36.5901441 18.9879061,36.5935853 18.9925095,36.5970265 C19.0120737,36.6096441 19.0339397,36.6176735 19.0535039,36.6314382 C19.1731911,36.7071441 19.2951799,36.7759676 19.4194704,36.8367618 C19.4724089,36.8631441 19.5253475,36.8860853 19.578286,36.9078794 C19.6772581,36.9526147 19.777381,36.9904676 19.8798056,37.0248794 C19.9419508,37.0455265 20.0052469,37.0661735 20.0696939,37.0833794 C20.1698168,37.1109088 20.2699397,37.1304088 20.3700626,37.1487618 C20.4322078,37.1602324 20.4932022,37.1751441 20.5541966,37.1831735 C20.7015039,37.2026735 20.849962,37.2129971 21.0007218,37.2152912 C21.0110793,37.2152912 21.0225877,37.2175853 21.0340961,37.2175853 L21.0375486,37.2175853 L21.0410011,37.2175853 C21.0525095,37.2175853 21.0640179,37.2152912 21.0766771,37.2152912 C21.2251352,37.2129971 21.3735933,37.2026735 21.5220514,37.1831735 C21.5841966,37.1751441 21.6440402,37.1602324 21.7050346,37.1487618 C21.8063084,37.1304088 21.9064313,37.1109088 22.0054034,37.0833794 C22.0710011,37.0661735 22.1331464,37.0455265 22.1964425,37.0248794 C22.2977162,36.9904676 22.3978391,36.9526147 22.497962,36.9078794 C22.5509006,36.8860853 22.6038391,36.8631441 22.6567777,36.8367618 C22.7799173,36.7771147 22.903057,36.7071441 23.0204425,36.6314382 C23.0411575,36.6176735 23.0630235,36.6096441 23.0837385,36.5970265 C23.0871911,36.5935853 23.0906436,36.5901441 23.0952469,36.5867029 C23.2816827,36.4605265 23.449705,36.3171441 23.606219,36.1657324 C23.641895,36.1313206 23.6752693,36.0969088 23.7086436,36.0602029 C23.8513475,35.9099382 23.9871464,35.7504971 24.1068335,35.5704088 L24.110286,35.5646735 C24.1148894,35.5589382 24.1183419,35.5532029 24.1217944,35.5474676 L41.456867,9.48743824 C42.5858391,7.78864412 42.1289564,5.49337941 40.4337721,4.36123235" id="Fill-89" fill="#352D6E"></path>
            </g>
        </g>
    </g>
</svg>